<?xml version="1.0" encoding="UTF-8"?>
<svg id="firefly_pink_white_ear" xmlns="http://www.w3.org/2000/svg" viewBox="0 0 113 115">
  <defs>
    <!-- 主体粉色渐变 -->
    <linearGradient id="pinkSolidGradient" x1="0" y1="0" x2="1" y2="1">
      <stop offset="0%" stop-color="#ffe3f2"/>
      <stop offset="50%" stop-color="#ff9acb"/>
      <stop offset="100%" stop-color="#ff5fa2"/>
    </linearGradient>

    <!-- 耳饰渐变：粉色到白色 -->
    <linearGradient id="pinkToWhiteGradient" x1="0" y1="0" x2="1" y2="1">
      <stop offset="0%" stop-color="#ff9acb"/>
      <stop offset="100%" stop-color="#ffffff"/>
    </linearGradient>
  </defs>

  <!-- 主体部分 -->
  <path fill="url(#pinkSolidGradient)" d="M61.5,83.5l6-6.5s-14.44,3-21.5,13c0,0,4.95-3,13-3,7.5,0,10.73.44,14.5.5,56,.96,46.5-65.5,3-82,0,0,12,11,7.5,37-4.07,23.5-43,31-43,50.5,10-17.5,22.5-20.5,35-25,10-3.6,18.66-10.42,24.5-20,0,0,6,14.25-5,27.5-7.89,9.5-34,8-34,8Z"/>

  <!-- 耳饰部分（粉→白渐变） -->
  <path fill="url(#pinkToWhiteGradient)" d="M99,35s3,2,6.5,8.5c-.5-11-9-20-15-24,0,0,3.79,9,3.5,17-.4,11-8,22-8,22,11.5-5.5,13-23.5,13-23.5Z"/>

  <!-- 其余细节 -->
  <path fill="url(#pinkSolidGradient)" d="M63.5,38.5c8.98.82,8.5,2,17-3.5,0,0-7.96,15.5-20.5,15.5h-5.5l-.5-6c0-2.5,4.5-6.45,9.5-6ZM42.5,38c2.97-14.5,15-18,3-36.5,0,0,15,7,15,22.5,0,10-6,12-14.5,22.5,0,0-4.59-3.17-3.5-8.5ZM45.5,50.5c3.5-4,6-6,6-6,1,3.5,1,8,1,8l-6,5c-2-2.5-1-7-1-7ZM75.5,79.5h-5.5c6-8.5,20.5-11.5,29-21.5-1.9,11.86-10.5,21.5-23.5,21.5ZM79.5,91c16.5-2,24-7,32-16.5,0,0-.5,9-10,14.5-9.96,5.77-22,2-22,2ZM61.5,9c-4.01,0-8-5.5-8-5.5h4.5c5,0,17,0,20.5,11,0,0-9.5-5.5-17-5.5ZM59.5,36.5s4-5,4-12.5c0,0,5.5,4.5,10.5,4.5,3,0,7.5-1.5,7.5-1.5,0,2-5,9.5-10,9.5-5.5,0-6.5-1.5-12,0ZM51,94c10.5,0,13.5,10,22,19,0,0-6.75,2-15,2s-29.61-5.18-28.5-8.5c5-13.5,7-11.5,7-19,0-4.37-1.5-9.62-4.5-10-1.75-.22-10,3.5-10,3.5-3-7-11.5-13.5-11.5-14.5,0-.8.82-1.53,1.5-2.5.6-.85,1.03-2,1.5-2,1,0,6,2.5,6,2.5.5-4-2-8.5-2-8.5,0,0,3.89,4,14,4,5,0-1.36,5.17-3,9-.53,1.24,6-.5,8,1s-.03,4.12,5.5,11.5c0,0-5.5,10.5-2.5,17,0,0,6.75-4.5,11.5-4.5ZM53.5,69.5c-2.5-6-2-13-2-13l2.5-2,9,8.5-9.5,6.5ZM43.5,78.5s-4-2.5-4-14c-1.5,0-1,1-6.5,3,13-28-7-46.5-18-45,4.08-4.23,11.18-8.92,24.5-10,2.27-.18,5.21-.76,7.5,1,3.25,2.5-4.5,15-4.5,15-8-8.5-14-7-14-7,0,0,15.25,5.78,12.5,11-3.79,7.19-.04,13.43,1.47,15.96l.03.04c-.5,8,1,13,3,13,1.68,0,4-4.3,4-2.5,0,7.5,1.5,11,1.5,11,0,2.5-3.5,4-7.5,8.5ZM65,61.5l-7.5-7c10-2,16.5-5.5,23-13-1,8-15.5,20-15.5,20ZM3.5,45c0-9,5.5-12.54,15-12.5,18,.08,15.5,17,15.5,17l-6.5-3c4,5.5,6.5,5.5,6.5,5.5v6c-8,0-15.5-3-20.5-9,0,3,3.5,12,3.5,12l-7.5-4.5,1.5,4.5s-7.5-6.5-7.5-16ZM5.5,33.5s2.82-7.73,10.5-8.5c5-.5,8.5,3,12.5,7h0s-2-2-10-2-13,3.5-13,3.5ZM16,93.5C-.5,79.5,1.5,55.5,1.5,55.5c0,0,3,2.5,5.5,9.5,2.14,6-3,8.5,14,27.5,0,0-3.68,2.12-5,1ZM17.5,98.5s16-4.5,15-18c0,0,2.7,6.6,0,12-3,6-2,4-6,12.5l-9-6.5ZM31.5,9c4.5-3.5,8.5-4.5,12-4.5,3,0,3.5,4.5,3.5,4.5,0,0-4.05-.5-7-.5s-8.5.5-8.5.5Z"/>
</svg>
